<?xml version="1.0" encoding="utf-8"?>
<!-- Generator: Adobe Illustrator 24.1.2, SVG Export Plug-In . SVG Version: 6.00 Build 0)  -->
<svg version="1.1" id="Layer_1" xmlns="http://www.w3.org/2000/svg" xmlns:xlink="http://www.w3.org/1999/xlink" x="0px" y="0px"
	 viewBox="0 0 241.6 89" style="enable-background:new 0 0 241.6 89;" xml:space="preserve">
<style type="text/css">
	.st0{fill:#009FC1;}
	.st1{fill:#FFFFFF;}
</style>
<path class="st0" d="M53.5,56.1l-20.6,10l0,22.9l-9.9-20.6L0,68.4l20.6-9.9l0-22.9l10,20.6L53.5,56.1z"/>
<g>
	<path class="st1" d="M61.6,34.8V0.9h5.5v40.8h-8L42.3,7.6H42v34.1h-5.5V0.9h8l16.9,33.9H61.6z"/>
	<path class="st1" d="M92.7,42.6c-12.3,0-17.5-8.5-17.5-21.3C75.2,8.5,80.4,0,92.7,0c12.3,0,17.5,8.5,17.5,21.3
		C110.2,34.1,105,42.6,92.7,42.6z M103.9,27.6V15c0-6.2-5-10-11.2-10S81.5,8.8,81.5,15v12.6c0,6.2,5,10,11.2,10
		S103.9,33.8,103.9,27.6z"/>
	<path class="st1" d="M123.9,24.5v17.2h-5.7V0.9h15.4c4.2,0,7.6,1,9.7,2.9c2.2,2,3.1,5,3.1,8.8c0,3.6-0.8,6.5-2.9,8.6
		c-1.6,1.6-3.6,2.7-6.8,3.1l10.1,17.4h-6.5l-9.5-17.2H123.9z M135.7,19.6c3,0,4.7-2.2,4.7-4.7v-4.5c0-2.8-1.8-4.4-4.7-4.4h-11.8
		v13.6H135.7z"/>
	<path class="st1" d="M159.8,24.5v17.2h-5.7V0.9h15.4c4.2,0,7.6,1,9.7,2.9s3.1,5,3.1,8.8c0,3.6-0.8,6.5-2.9,8.6
		c-1.6,1.6-3.6,2.7-6.8,3.1l10.1,17.4h-6.5l-9.5-17.2H159.8z M171.6,19.6c3,0,4.7-2.2,4.7-4.7v-4.5c0-2.8-1.8-4.4-4.7-4.4h-11.8
		v13.6H171.6z"/>
	<path class="st1" d="M190.1,0.9h5.7v40.8h-5.7V0.9z"/>
	<path class="st1" d="M231.9,39.6c-2.7,2-6.2,3-10.6,3c-12.3,0-17.5-8.3-17.5-21.3c0-13,5.2-21.3,17.5-21.3s17.5,8.3,17.5,21.3
		c0,5.7-1,10.7-3.4,14.4l6.2,6l-3.7,3.7L231.9,39.6z M232.6,27.6V15c0-6.2-5-10-11.2-10s-11.2,3.8-11.2,10v12.6c0,6.2,5,10,11.2,10
		S232.6,33.8,232.6,27.6z"/>
	<path class="st1" d="M80.9,61.4c-0.2,0.9-0.3,1.9-0.6,3c-0.2,1.1-0.5,2.1-0.7,3.1c-0.2,1-0.5,1.9-0.7,2.6c-0.2,0.8-0.4,1.3-0.6,1.5
		c-0.2,0-0.4,0-0.7,0s-0.3-0.2-0.2-0.4c0.3-0.7,0.6-1.6,1-2.6c0.3-0.9,0.5-1.9,0.8-3.2s0.5-2.7,0.7-4.3c-0.3,0-0.6-0.1-0.8-0.2
		c-0.3-0.1-0.5-0.3-0.7-0.5c-0.2-0.2-0.4-0.4-0.6-0.6c-0.2-0.2-0.4-0.4-0.6-0.6c-0.3-0.3-0.5-0.8-0.8-1.3s-0.5-1.2-0.7-1.8
		c-0.2-0.6-0.4-1.3-0.6-1.9c-0.1-0.6-0.2-1.2-0.3-1.6c0-0.1,0-0.1,0.1-0.2c0.1,0,0.2-0.1,0.3-0.1c0.1,0,0.3,0,0.4,0
		c0.1,0,0.3,0,0.4,0.1c0.2,1.7,0.5,3.1,0.9,4.2s0.9,1.9,1.3,2.4c0.5,0.7,1.1,1.1,1.7,1.4c0.1-0.7,0.2-1.6,0.3-2.5
		c0.1-0.9,0.1-1.9,0.1-2.7c0-0.9,0-1.6,0-2.3c0-0.6,0-1-0.1-1.2c0.1-0.2,0.3-0.3,0.4-0.3s0.4,0.1,0.7,0.2c0,0.5,0,1,0,1.6
		c0,0.6,0,1.2-0.1,1.8c0,0.6-0.1,1.3-0.1,1.9c0,0.6-0.1,1.3-0.1,1.8s-0.1,1.1-0.1,1.5C81,60.8,80.9,61.2,80.9,61.4z"/>
	<path class="st1" d="M82.5,60.9c0.3,0,0.7,0.1,1.1,0.1c0.4,0.1,0.8,0.2,1.2,0.3c0.4,0.1,0.7,0.3,1,0.4c0.3,0.2,0.6,0.3,0.8,0.6
		c0.2,0.2,0.3,0.5,0.4,0.9c0,0.4,0,0.8-0.1,1.3c-0.1,0.5-0.2,0.9-0.4,1.4c-0.2,0.5-0.4,0.9-0.6,1.3c-0.2,0.4-0.5,0.7-0.7,1
		s-0.5,0.4-0.7,0.4c-0.4,0-0.7-0.1-1-0.3c-0.3-0.2-0.5-0.4-0.6-0.7s-0.3-0.5-0.3-0.8c-0.1-0.3-0.1-0.5-0.1-0.7
		c-0.1-0.9-0.1-1.7,0-2.4c0-0.7,0.1-1.3,0.2-1.8c-0.1-0.1-0.1-0.2-0.2-0.2c-0.1-0.1-0.1-0.1-0.2-0.2c-0.1-0.1-0.1-0.1-0.2-0.2
		c0.1,0,0.1-0.1,0.2-0.2C82.4,61.1,82.5,61,82.5,60.9z M83.5,67c0.1,0.1,0.1,0.1,0.2,0.2c0.1,0.1,0.2,0.1,0.3,0.2s0.3,0,0.4,0
		c0.1,0,0.3-0.1,0.4-0.3c0.4-0.4,0.7-0.9,0.9-1.3s0.3-0.9,0.4-1.3s0.1-0.8,0-1.1s-0.2-0.5-0.4-0.7c-0.1-0.1-0.3-0.2-0.3-0.2
		s-0.2-0.1-0.4-0.2s-0.3-0.1-0.6-0.2c-0.2-0.1-0.5-0.1-0.9-0.2c-0.2,0.6-0.3,1.1-0.4,1.7c-0.1,0.6-0.1,1.1-0.1,1.5s0,0.9,0.1,1.2
		C83.3,66.7,83.4,66.9,83.5,67z"/>
	<path class="st1" d="M89.1,67.5c0.1,0.1,0.3-0.1,0.6-0.4c0.3-0.4,0.5-0.9,0.8-1.5c0.3-0.6,0.5-1.2,0.6-1.9c0.2-0.7,0.2-1.3,0.2-1.8
		c0-0.1,0-0.2,0.1-0.2c0.1,0,0.2,0,0.3,0s0.2,0,0.3,0c0.1,0,0.2,0,0.2,0.1c0,0.4-0.1,0.9-0.1,1.4c-0.1,0.6-0.1,1.2-0.1,1.7
		c0,0.6,0,1.1,0.1,1.6s0.2,0.8,0.4,0.9c0.2,0.1,0.4,0.1,0.7,0c0.3-0.1,0.5-0.3,0.7-0.5s0.4-0.4,0.6-0.6c0.2-0.2,0.3-0.2,0.4-0.2
		c-0.1,0.3-0.2,0.6-0.4,0.9c-0.2,0.3-0.5,0.5-0.8,0.7c-0.3,0.2-0.6,0.3-0.9,0.4c-0.3,0.1-0.6,0.1-0.9,0c-0.1,0-0.2-0.1-0.2-0.3
		c-0.1-0.2-0.1-0.4-0.2-0.6c0-0.2-0.1-0.5-0.1-0.8c0-0.3-0.1-0.5-0.1-0.8c-0.1,0.3-0.3,0.6-0.5,0.9c-0.2,0.3-0.3,0.7-0.5,1
		c-0.2,0.3-0.3,0.6-0.5,0.8c-0.2,0.2-0.3,0.4-0.4,0.4c-0.3,0.1-0.6,0.2-0.8,0.1c-0.2-0.1-0.3-0.2-0.4-0.3c-0.1-0.1-0.2-0.2-0.2-0.5
		c0-0.3-0.1-0.7-0.1-1.2s0-1,0-1.6c0-0.6,0-1.2,0-1.8s0-1.2,0-1.8c0-0.6,0-1.1-0.1-1.6c0.1,0,0.2,0,0.4,0c0.1,0,0.2,0,0.3,0.1
		c0.1,0,0.2,0.1,0.3,0.2c0.1,0.4,0.1,1.1,0,2.1c-0.1,1-0.1,2.2-0.1,3.6c0,0.1,0,0.2,0,0.3c0,0.1,0,0.3,0.1,0.5
		c0,0.2,0.1,0.3,0.1,0.5S89,67.4,89.1,67.5z"/>
	<path class="st1" d="M94.6,60.4c0-0.2,0.1-0.2,0.2-0.1c0.2,0.1,0.4,0.2,0.6,0.2c0.1,0.4,0.1,0.7,0.2,0.9c0,0.2,0.1,0.5,0.1,0.7
		c0,0.2,0,0.4,0.1,0.7c0,0.2,0,0.6,0.1,1c0.2-0.4,0.3-0.8,0.6-1.1c0.2-0.3,0.5-0.6,0.9-0.9c0.4-0.2,0.8-0.4,1.3-0.5s1.1-0.2,1.8-0.1
		c0,0.1,0,0.3-0.1,0.3c-0.1,0.1-0.3,0.2-0.7,0.2c-0.5,0.1-0.9,0.3-1.3,0.5c-0.4,0.3-0.7,0.5-1,0.9c-0.3,0.3-0.5,0.7-0.6,1
		c-0.2,0.4-0.3,0.7-0.4,1c0,0.2,0,0.4-0.1,0.7c0,0.3,0,0.6-0.1,0.9c0,0.3,0,0.6,0,0.9c0,0.3,0,0.5,0,0.7c0,0.1,0,0.2-0.1,0.2
		s-0.2,0.1-0.3,0.1c-0.1,0-0.2,0-0.3,0c-0.1,0-0.2-0.1-0.2-0.2c0-1.8,0-3.3-0.1-4.6S94.7,61.5,94.6,60.4z"/>
	<path class="st1" d="M115.4,59.3c0.6,0.3,0.9,0.7,1,1.3c0.1,0.5,0,1.1-0.2,1.7c-0.3,0.6-0.6,1.2-1.1,1.8c-0.5,0.6-1,1.2-1.6,1.7
		c-0.1,0.1-0.2,0.2-0.3,0.2c-0.1,0.1-0.2,0.2-0.4,0.3c-0.1,0.1-0.2,0.2-0.3,0.3c-0.1,0.1-0.2,0.1-0.2,0.2c-0.8,0.6-1.7,1.1-2.5,1.5
		c-0.8,0.4-1.8,0.8-2.7,1.1c-0.4,0.1-0.8,0.1-1.1,0.1c-0.3-0.1-0.6-0.1-0.8-0.3c-0.2-0.1-0.4-0.3-0.5-0.4s-0.1-0.3-0.1-0.4
		c0.4,0.1,0.7,0.1,0.9,0.1s0.4,0,0.5,0c0.1,0,0.2-0.1,0.3-0.1c0.1,0,0.1-0.1,0.2-0.1c0-0.4,0-0.8,0-1.1s0-0.6,0-0.9s0-0.5,0-0.8
		c0-0.2,0-0.5,0-0.8c0-0.7,0-1.4-0.1-1.9s0-1,0-1.4c-0.5,0.2-0.8,0.3-1,0.5s-0.4,0.2-0.5,0.2s-0.2,0.1-0.2,0.1s-0.1,0-0.1-0.1
		c-0.1,0-0.1-0.1-0.1-0.2c0-0.1,0-0.2,0-0.3c0-0.1,0-0.3,0-0.4c0.1-0.1,0.2-0.2,0.3-0.2c0.1-0.1,0.2-0.1,0.3-0.2
		c0.1-0.1,0.3-0.2,0.5-0.2c0.2-0.1,0.4-0.2,0.7-0.4c0-0.6,0-1.1,0-1.6s0-0.9-0.1-1.4c0-0.4-0.1-0.9-0.1-1.4c0-0.5-0.1-1-0.1-1.7
		c0-0.1-0.1-0.1-0.4,0c-0.2,0.1-0.5,0.2-0.8,0.4c-0.3,0.2-0.6,0.4-0.9,0.6c-0.3,0.2-0.5,0.5-0.7,0.7c-0.1,0.2-0.2,0.3-0.3,0.4
		c-0.1,0.1-0.1,0.3-0.2,0.3c0,0.1-0.1,0.1-0.1,0.2c0,0-0.1,0-0.1-0.2c0-0.4,0.2-0.9,0.4-1.3c0.2-0.4,0.5-0.7,0.8-1s0.7-0.6,1.1-0.8
		s0.8-0.4,1.1-0.5c0-0.2,0-0.3,0-0.4c0-0.1,0-0.2,0-0.3c0.1,0,0.2-0.1,0.4-0.3c0.2-0.2,0.3-0.2,0.4-0.2c0,0.1,0.1,0.2,0.1,0.3
		c0,0.1,0,0.2,0.1,0.2c0,0.1,0,0.2,0.1,0.2c0.4-0.3,1-0.4,1.5-0.5c0.6-0.1,1.1-0.1,1.6,0c0.5,0.1,1,0.2,1.4,0.4
		c0.4,0.2,0.7,0.4,0.8,0.6c0.3,0.5,0.5,1,0.4,1.6s-0.3,1.1-0.6,1.7c-0.3,0.6-0.7,1.1-1.1,1.5s-0.8,0.8-1.1,1.1
		c0.5-0.1,1.1-0.2,1.6-0.2c0.6-0.1,1.1-0.1,1.6,0c0.5,0,1,0.1,1.4,0.2C114.7,59,115.1,59.1,115.4,59.3z M106.9,53.8
		c-0.1,1.1-0.1,2.1,0,3c0.1,0.9,0.1,1.9,0.2,2.9c0.4-0.2,0.9-0.4,1.4-0.8s0.9-0.7,1.3-1.1c0.4-0.4,0.8-0.9,1.1-1.4
		c0.3-0.5,0.5-1.1,0.7-1.8c0.1-0.3-0.1-0.6-0.3-0.8c-0.3-0.2-0.6-0.4-1.1-0.5c-0.4-0.1-1-0.1-1.5,0C108,53.3,107.5,53.5,106.9,53.8z
		 M107.3,67.9c0.9-0.3,1.9-0.7,2.8-1.2s1.9-1.2,2.7-1.9c0.8-0.7,1.4-1.4,1.9-2.1c0.5-0.7,0.7-1.4,0.6-1.9c-0.1-0.4-0.4-0.6-1.1-0.8
		c-0.6-0.1-1.4-0.2-2.3-0.2c-0.9,0-1.8,0.2-2.7,0.4s-1.7,0.5-2.2,0.8c0,0.2,0,0.7,0,1.3c0,0.6,0,1.2,0,2c0,0.7,0,1.4,0.1,2.1
		C107.2,67,107.3,67.5,107.3,67.9z"/>
	<path class="st1" d="M118.6,67.5c0.1,0.1,0.3-0.1,0.6-0.4c0.3-0.4,0.5-0.9,0.8-1.5c0.3-0.6,0.5-1.2,0.6-1.9
		c0.2-0.7,0.2-1.3,0.2-1.8c0-0.1,0-0.2,0.1-0.2c0.1,0,0.2,0,0.3,0s0.2,0,0.3,0c0.1,0,0.2,0,0.2,0.1c0,0.4-0.1,0.9-0.1,1.4
		c-0.1,0.6-0.1,1.2-0.1,1.7c0,0.6,0,1.1,0.1,1.6c0.1,0.5,0.2,0.8,0.4,0.9c0.2,0.1,0.4,0.1,0.7,0c0.3-0.1,0.5-0.3,0.7-0.5
		c0.2-0.2,0.4-0.4,0.6-0.6c0.2-0.2,0.3-0.2,0.4-0.2c-0.1,0.3-0.2,0.6-0.4,0.9c-0.2,0.3-0.5,0.5-0.8,0.7c-0.3,0.2-0.6,0.3-0.9,0.4
		c-0.3,0.1-0.6,0.1-0.9,0c-0.1,0-0.2-0.1-0.2-0.3c-0.1-0.2-0.1-0.4-0.2-0.6c0-0.2-0.1-0.5-0.1-0.8c0-0.3-0.1-0.5-0.1-0.8
		c-0.1,0.3-0.3,0.6-0.5,0.9c-0.2,0.3-0.3,0.7-0.5,1c-0.2,0.3-0.3,0.6-0.5,0.8c-0.2,0.2-0.3,0.4-0.4,0.4c-0.3,0.1-0.6,0.2-0.8,0.1
		c-0.2-0.1-0.3-0.2-0.4-0.3c-0.1-0.1-0.2-0.2-0.2-0.5c0-0.3-0.1-0.7-0.1-1.2c0-0.5,0-1,0-1.6c0-0.6,0-1.2,0-1.8s0-1.2,0-1.8
		c0-0.6,0-1.1-0.1-1.6c0.1,0,0.2,0,0.4,0c0.1,0,0.2,0,0.3,0.1c0.1,0,0.2,0.1,0.3,0.2c0.1,0.4,0.1,1.1,0,2.1c-0.1,1-0.1,2.2-0.1,3.6
		c0,0.1,0,0.2,0,0.3c0,0.1,0,0.3,0.1,0.5c0,0.2,0.1,0.3,0.1,0.5C118.4,67.3,118.5,67.4,118.6,67.5z"/>
	<path class="st1" d="M126.8,60.5c0.4,0.1,0.8,0.2,1.1,0.3c0.3,0.1,0.5,0.3,0.7,0.4c0.2,0.1,0.3,0.3,0.4,0.5s0.2,0.3,0.3,0.4
		c0,0.1-0.1,0.1-0.2,0c-0.1-0.1-0.3-0.2-0.4-0.3c-0.4-0.2-0.8-0.4-1.4-0.4c-0.5-0.1-1,0-1.5,0.1s-0.8,0.3-1.1,0.6
		c-0.3,0.3-0.3,0.6-0.2,1c0.1,0.4,0.4,0.7,0.7,1c0.4,0.3,0.7,0.6,1.2,0.8c0.4,0.2,0.9,0.4,1.3,0.6c0.4,0.2,0.8,0.4,1.1,0.6
		c0.3-0.2,0.6-0.3,0.9-0.5c0.2-0.1,0.5-0.3,0.6-0.4c0.2-0.1,0.4-0.2,0.6-0.3s0.4-0.2,0.7-0.3c0,0,0.1,0,0.1,0c0,0,0,0,0,0.1
		c0,0-0.1,0.1-0.2,0.2c-0.1,0.1-0.3,0.2-0.5,0.4c-0.1,0.1-0.3,0.2-0.7,0.4c-0.3,0.2-0.7,0.4-1.1,0.7c0.2,0.2,0.4,0.4,0.5,0.6
		c0.1,0.2,0.2,0.4,0.2,0.6s0,0.4-0.1,0.7c-0.3,0.6-0.7,1-1.2,1.3c-0.4,0.3-0.8,0.5-1.2,0.6c-0.2,0.1-0.5,0.1-0.8,0
		c-0.3-0.1-0.5-0.2-0.7-0.4c-0.2-0.3-0.2-0.6-0.1-0.8c0.1-0.3,0.3-0.6,0.5-0.8c0.2-0.3,0.5-0.5,0.8-0.8c0.3-0.2,0.6-0.5,0.8-0.6
		c-0.2-0.2-0.5-0.4-0.9-0.6c-0.4-0.3-0.9-0.5-1.4-0.8c-0.5-0.3-0.9-0.6-1.3-1c-0.4-0.3-0.6-0.7-0.6-1c-0.1-0.4,0-0.7,0.1-1.1
		s0.4-0.7,0.7-0.9c0.3-0.3,0.7-0.5,1.1-0.6C125.9,60.4,126.4,60.4,126.8,60.5z M126.6,69.4c0.2,0.1,0.4,0.1,0.6,0
		c0.2-0.1,0.5-0.2,0.7-0.4c0.2-0.2,0.4-0.3,0.6-0.5s0.3-0.4,0.3-0.5c0.1-0.1,0-0.3-0.1-0.5c-0.1-0.2-0.3-0.3-0.5-0.4
		c-0.2,0.1-0.4,0.3-0.6,0.5c-0.2,0.2-0.5,0.4-0.6,0.7c-0.2,0.2-0.3,0.4-0.4,0.6C126.5,69.1,126.5,69.2,126.6,69.4z"/>
	<path class="st1" d="M132.3,57.2c0.2,0,0.3,0.1,0.3,0.3c0,0.2,0,0.4-0.1,0.5c-0.2,0.2-0.3,0.3-0.4,0.4c-0.1,0.1-0.2,0.2-0.4,0.2
		c-0.1,0-0.2,0-0.3,0c-0.1,0-0.1-0.1-0.2-0.4c0.1-0.2,0.2-0.4,0.3-0.6C131.8,57.5,132,57.4,132.3,57.2z M132.4,60.6
		c0.1,0.8,0.1,1.7,0.2,2.7c0,1,0.1,2,0.2,3.1c0.1,0.6,0.1,1,0.2,1.3c0.1,0.3,0.1,0.6,0.2,0.9c-0.3,0.1-0.5,0-0.6,0
		c-0.2-0.1-0.3-0.1-0.4-0.2c0-0.3-0.1-0.7-0.1-1.4c0-0.6-0.1-1.3-0.1-2.1c0-0.8-0.1-1.5-0.1-2.2c0-0.7-0.1-1.3-0.1-1.7
		c0.1,0,0.1-0.1,0.2-0.2c0-0.1,0.1-0.1,0.1-0.2s0.1-0.1,0.2-0.1C132.1,60.6,132.3,60.6,132.4,60.6z"/>
	<path class="st1" d="M135.9,60.7c0,0.5,0,1,0,1.4c0,0.5,0,0.9,0,1.4c0,0.4,0,0.9,0,1.3c0,0.4,0,0.8,0,1.1c0-0.1,0-0.2,0.1-0.5
		c0.1-0.3,0.2-0.6,0.3-0.9c0.1-0.3,0.3-0.7,0.5-1.1c0.2-0.4,0.3-0.7,0.5-1c0.2-0.3,0.4-0.5,0.6-0.7c0.2-0.2,0.4-0.2,0.6-0.2
		c0.4,0.2,0.6,0.4,0.8,0.8c0.2,0.3,0.3,0.7,0.3,1.1c0.1,0.4,0.1,0.9,0.2,1.4c0.1,0.5,0.2,1.1,0.5,1.6c0.1,0.3,0.3,0.4,0.5,0.6
		c0.2,0.1,0.4,0.2,0.6,0.3c0.2,0.1,0.3,0.1,0.4,0.1s0.2,0,0.1,0.1c-0.4,0.3-0.8,0.4-1.1,0.3s-0.6-0.3-0.8-0.7
		c-0.2-0.4-0.4-0.8-0.5-1.3c-0.1-0.5-0.3-1-0.4-1.4s-0.2-0.8-0.3-1.2c-0.1-0.3-0.2-0.5-0.3-0.5c-0.2,0-0.3,0.2-0.5,0.4
		c-0.2,0.3-0.4,0.6-0.6,1c-0.2,0.4-0.4,0.9-0.5,1.4c-0.2,0.5-0.3,1-0.5,1.4c-0.1,0.4-0.3,0.8-0.3,1.1c-0.1,0.3-0.1,0.5-0.2,0.6
		c-0.3,0-0.4,0-0.5,0c-0.1,0-0.2-0.1-0.3-0.3c0.1-1.5,0.1-3,0.1-4.3c0-1.4-0.1-2.5-0.1-3.5c0-0.2,0-0.2,0.1-0.2c0.1,0,0.2,0,0.3,0.1
		c0.1,0.1,0.2,0.1,0.3,0.2C135.7,60.7,135.8,60.7,135.9,60.7z"/>
	<path class="st1" d="M143.8,61.3c0.1,0,0.2-0.1,0.4-0.1c0.2-0.1,0.4-0.1,0.6,0c0.5,0,0.9,0.1,1.2,0.4c0.3,0.3,0.3,0.8,0.1,1.6
		c-0.3,0.9-0.8,1.6-1.3,2.2c-0.5,0.6-1.2,1.1-1.9,1.7c0.2,0.4,0.4,0.7,0.8,0.8c0.3,0.1,0.7,0,1.1-0.2c0.4-0.2,0.8-0.4,1.1-0.7
		c0.4-0.3,0.7-0.5,0.9-0.7c0.4-0.3,0.7-0.6,0.9-0.8s0.4-0.5,0.7-0.8c0.1,0,0.1,0,0.1,0s0,0.1,0,0.2c0,0.1,0,0.2-0.1,0.4
		c-0.1,0.1-0.1,0.2-0.2,0.3s-0.1,0.2-0.2,0.3s-0.2,0.2-0.4,0.4s-0.3,0.4-0.6,0.6c-0.3,0.2-0.5,0.5-0.8,0.7c-0.2,0.2-0.5,0.4-0.8,0.6
		c-0.3,0.2-0.6,0.3-0.9,0.4c-0.3,0.1-0.7,0.1-1.1,0c-0.3-0.1-0.6-0.3-0.8-0.4c-0.2-0.1-0.4-0.3-0.5-0.4c-0.1-0.1-0.2-0.3-0.2-0.4
		c-0.1-0.1-0.1-0.2-0.1-0.3c-0.1-0.3-0.1-0.8-0.1-1.4c0-0.6,0.2-1.3,0.5-2.3c0.2-0.5,0.5-0.9,0.7-1.2
		C143.2,61.8,143.5,61.5,143.8,61.3z M142.7,65.9c0.2-0.1,0.5-0.3,0.8-0.5c0.3-0.2,0.6-0.5,0.9-0.8c0.3-0.3,0.5-0.6,0.7-0.9
		c0.2-0.3,0.3-0.7,0.3-1.1c0.1-0.3,0-0.4,0-0.5c0-0.1-0.1-0.1-0.1-0.1c-0.3-0.1-0.6-0.1-0.9,0.1c-0.3,0.2-0.6,0.5-0.8,1
		c-0.2,0.4-0.4,0.9-0.6,1.4C142.7,65,142.7,65.4,142.7,65.9z"/>
	<path class="st1" d="M150.8,60.5c0.4,0.1,0.8,0.2,1.1,0.3c0.3,0.1,0.5,0.3,0.7,0.4c0.2,0.1,0.3,0.3,0.4,0.5s0.2,0.3,0.3,0.4
		c0,0.1-0.1,0.1-0.2,0c-0.1-0.1-0.3-0.2-0.4-0.3c-0.4-0.2-0.8-0.4-1.4-0.4c-0.5-0.1-1,0-1.5,0.1s-0.8,0.3-1.1,0.6
		c-0.3,0.3-0.3,0.6-0.2,1c0.1,0.4,0.4,0.7,0.7,1c0.4,0.3,0.7,0.6,1.2,0.8c0.4,0.2,0.9,0.4,1.3,0.6c0.4,0.2,0.8,0.4,1.1,0.6
		c0.3-0.2,0.6-0.3,0.9-0.5c0.2-0.1,0.5-0.3,0.6-0.4c0.2-0.1,0.4-0.2,0.6-0.3s0.4-0.2,0.7-0.3c0,0,0.1,0,0.1,0c0,0,0,0,0,0.1
		c0,0-0.1,0.1-0.2,0.2c-0.1,0.1-0.3,0.2-0.5,0.4c-0.1,0.1-0.3,0.2-0.7,0.4c-0.3,0.2-0.7,0.4-1.1,0.7c0.2,0.2,0.4,0.4,0.5,0.6
		c0.1,0.2,0.2,0.4,0.2,0.6s0,0.4-0.1,0.7c-0.3,0.6-0.7,1-1.2,1.3c-0.4,0.3-0.8,0.5-1.2,0.6c-0.2,0.1-0.5,0.1-0.8,0
		c-0.3-0.1-0.5-0.2-0.7-0.4c-0.2-0.3-0.2-0.6-0.1-0.8c0.1-0.3,0.3-0.6,0.5-0.8c0.2-0.3,0.5-0.5,0.8-0.8c0.3-0.2,0.6-0.5,0.8-0.6
		c-0.2-0.2-0.5-0.4-0.9-0.6c-0.4-0.3-0.9-0.5-1.4-0.8c-0.5-0.3-0.9-0.6-1.3-1c-0.4-0.3-0.6-0.7-0.6-1c-0.1-0.4,0-0.7,0.1-1.1
		s0.4-0.7,0.7-0.9c0.3-0.3,0.7-0.5,1.1-0.6C149.9,60.4,150.3,60.4,150.8,60.5z M150.6,69.4c0.2,0.1,0.4,0.1,0.6,0
		c0.2-0.1,0.5-0.2,0.7-0.4c0.2-0.2,0.4-0.3,0.6-0.5s0.3-0.4,0.3-0.5c0.1-0.1,0-0.3-0.1-0.5c-0.1-0.2-0.3-0.3-0.5-0.4
		c-0.2,0.1-0.4,0.3-0.6,0.5c-0.2,0.2-0.5,0.4-0.6,0.7c-0.2,0.2-0.3,0.4-0.4,0.6C150.4,69.1,150.4,69.2,150.6,69.4z"/>
	<path class="st1" d="M157.7,60.5c0.4,0.1,0.8,0.2,1.1,0.3c0.3,0.1,0.5,0.3,0.7,0.4c0.2,0.1,0.3,0.3,0.4,0.5s0.2,0.3,0.3,0.4
		c0,0.1-0.1,0.1-0.2,0c-0.1-0.1-0.3-0.2-0.4-0.3c-0.4-0.2-0.8-0.4-1.4-0.4c-0.5-0.1-1,0-1.5,0.1s-0.8,0.3-1.1,0.6
		c-0.3,0.3-0.3,0.6-0.2,1c0.1,0.4,0.4,0.7,0.7,1c0.4,0.3,0.7,0.6,1.2,0.8c0.4,0.2,0.9,0.4,1.3,0.6c0.4,0.2,0.8,0.4,1.1,0.6
		c0.3-0.2,0.6-0.3,0.9-0.5c0.2-0.1,0.5-0.3,0.6-0.4c0.2-0.1,0.4-0.2,0.6-0.3s0.4-0.2,0.7-0.3c0,0,0.1,0,0.1,0c0,0,0,0,0,0.1
		c0,0-0.1,0.1-0.2,0.2c-0.1,0.1-0.3,0.2-0.5,0.4c-0.1,0.1-0.3,0.2-0.7,0.4c-0.3,0.2-0.7,0.4-1.1,0.7c0.2,0.2,0.4,0.4,0.5,0.6
		c0.1,0.2,0.2,0.4,0.2,0.6s0,0.4-0.1,0.7c-0.3,0.6-0.7,1-1.2,1.3c-0.4,0.3-0.8,0.5-1.2,0.6c-0.2,0.1-0.5,0.1-0.8,0
		c-0.3-0.1-0.5-0.2-0.7-0.4c-0.2-0.3-0.2-0.6-0.1-0.8c0.1-0.3,0.3-0.6,0.5-0.8c0.2-0.3,0.5-0.5,0.8-0.8c0.3-0.2,0.6-0.5,0.8-0.6
		c-0.2-0.2-0.5-0.4-0.9-0.6c-0.4-0.3-0.9-0.5-1.4-0.8c-0.5-0.3-0.9-0.6-1.3-1c-0.4-0.3-0.6-0.7-0.6-1c-0.1-0.4,0-0.7,0.1-1.1
		s0.4-0.7,0.7-0.9c0.3-0.3,0.7-0.5,1.1-0.6C156.8,60.4,157.2,60.4,157.7,60.5z M157.4,69.4c0.2,0.1,0.4,0.1,0.6,0
		c0.2-0.1,0.5-0.2,0.7-0.4c0.2-0.2,0.4-0.3,0.6-0.5s0.3-0.4,0.3-0.5c0.1-0.1,0-0.3-0.1-0.5c-0.1-0.2-0.3-0.3-0.5-0.4
		c-0.2,0.1-0.4,0.3-0.6,0.5c-0.2,0.2-0.5,0.4-0.6,0.7c-0.2,0.2-0.3,0.4-0.4,0.6C157.3,69.1,157.3,69.2,157.4,69.4z"/>
	<path class="st1" d="M171.3,62.4c0.1,0,0.1,0,0.1,0.1c0,0.1,0,0.2,0,0.2c0,0.1,0,0.2-0.1,0.3c0,0.1,0,0.1-0.1,0.2
		c-0.2,0-0.5,0-0.9,0s-0.8,0-1.3,0.1c-0.4,0-0.9,0.1-1.2,0.1s-0.6,0.1-0.6,0.2c-0.1-0.3-0.1-0.6,0-0.8c0.1-0.2,0.3-0.3,0.6-0.3
		c0.3,0,0.6,0,0.8,0c0.2,0,0.5,0,0.7,0c0.2,0,0.5,0,0.8,0C170.5,62.5,170.9,62.5,171.3,62.4z"/>
	<path class="st1" d="M183.4,52.8c0.2,0.3,0.3,0.6,0.3,0.7s0.1,0.3,0.1,0.5c-0.2-0.2-0.4-0.3-0.5-0.4c-0.2-0.1-0.3-0.2-0.5-0.3
		s-0.3-0.2-0.5-0.2c-0.2-0.1-0.4-0.1-0.7-0.2c-0.7-0.1-1.3-0.1-2,0.1c-0.6,0.1-1.1,0.4-1.6,0.7s-0.7,0.7-0.9,1.1
		c-0.2,0.4-0.2,0.9,0,1.4c0.2,0.6,0.5,1.1,0.9,1.6c0.4,0.5,0.8,1,1.4,1.5c0.5,0.5,1.1,1,1.6,1.4c0.6,0.4,1.1,0.9,1.7,1.2
		c0.5,0.4,1,0.7,1.5,1c0.4,0.3,0.8,0.6,1,0.8c0.5-0.3,1-0.5,1.5-0.7c0.5-0.2,0.9-0.4,1.4-0.6h0.2c0.1,0,0.1,0.1,0,0.2
		c-0.2,0.1-0.3,0.3-0.6,0.4c-0.2,0.2-0.4,0.3-0.7,0.5c-0.2,0.2-0.4,0.3-0.7,0.5s-0.4,0.3-0.6,0.4c0.5,0.5,0.8,1,1,1.4
		c0.2,0.4,0.2,0.8,0,1.2c-0.1,0.4-0.4,0.8-0.9,1.2c-0.4,0.4-1,0.8-1.7,1.3c-0.4,0.3-0.9,0.6-1.4,0.8c-0.5,0.2-1,0.4-1.4,0.4
		c-0.4,0-0.8,0-1.1-0.2s-0.4-0.6-0.3-1.2c0.3-0.9,0.8-1.8,1.5-2.6c0.7-0.8,1.6-1.6,2.6-2.4c0-0.1-0.2-0.2-0.5-0.4
		c-0.3-0.2-0.8-0.6-1.3-0.9c-0.5-0.4-1.1-0.8-1.7-1.3c-0.6-0.5-1.2-1-1.8-1.6c-0.6-0.6-1.1-1.1-1.5-1.7c-0.4-0.6-0.8-1.2-0.9-1.8
		c-0.2-0.7-0.3-1.4-0.1-1.9c0.1-0.6,0.3-1,0.5-1.4c0.3-0.4,0.5-0.7,0.8-0.9s0.5-0.3,0.7-0.4c0.4-0.1,0.8-0.2,1.2-0.3
		c0.4-0.1,0.8-0.1,1.2-0.1c0.4,0,0.8,0.2,1.3,0.3C182.6,52.1,183,52.4,183.4,52.8z M181.3,69.2c0,0.1,0,0.2,0.1,0.3
		c0.1,0.1,0.3,0.1,0.6,0.1c0.3,0,0.6-0.1,1-0.2c0.4-0.1,0.9-0.4,1.5-0.7c0.4-0.3,0.8-0.6,1-1c0.2-0.3,0.4-0.7,0.4-1
		c0-0.3,0-0.6-0.2-0.9c-0.2-0.3-0.4-0.5-0.8-0.7c-0.2,0.1-0.5,0.3-0.9,0.6s-0.8,0.7-1.2,1.1s-0.8,0.8-1.1,1.3
		C181.5,68.5,181.3,68.9,181.3,69.2z"/>
	<path class="st1" d="M189.8,57.2c0.2,0,0.3,0.1,0.3,0.3c0,0.2,0,0.4-0.1,0.5c-0.2,0.2-0.3,0.3-0.4,0.4c-0.1,0.1-0.2,0.2-0.4,0.2
		c-0.1,0-0.2,0-0.3,0c-0.1,0-0.1-0.1-0.2-0.4c0.1-0.2,0.2-0.4,0.3-0.6C189.3,57.5,189.5,57.4,189.8,57.2z M189.9,60.6
		c0.1,0.8,0.1,1.7,0.2,2.7c0,1,0.1,2,0.2,3.1c0.1,0.6,0.1,1,0.2,1.3c0.1,0.3,0.1,0.6,0.2,0.9c-0.3,0.1-0.5,0-0.6,0
		c-0.2-0.1-0.3-0.1-0.4-0.2c0-0.3-0.1-0.7-0.1-1.4c0-0.6-0.1-1.3-0.1-2.1c0-0.8-0.1-1.5-0.1-2.2c0-0.7-0.1-1.3-0.1-1.7
		c0.1,0,0.1-0.1,0.2-0.2c0-0.1,0.1-0.1,0.1-0.2s0.1-0.1,0.2-0.1C189.7,60.6,189.8,60.6,189.9,60.6z"/>
	<path class="st1" d="M191.9,59.9c0-0.2,0-0.2,0.1-0.3c0.1,0,0.2,0,0.3,0c0.1,0,0.2,0.1,0.3,0.2c0.1,0.1,0.2,0.1,0.2,0.2
		c0,0.4,0,1.1-0.1,1.8c-0.1,0.8-0.1,1.7-0.1,2.9c0.1-0.3,0.2-0.6,0.3-1c0.1-0.4,0.3-0.8,0.5-1.2c0.2-0.4,0.4-0.8,0.6-1.1
		c0.2-0.3,0.4-0.6,0.6-0.8s0.4-0.3,0.6-0.3c0.2,0,0.4,0.1,0.5,0.4c0,0.1,0.1,0.3,0.1,0.5c0,0.3,0,0.6,0.1,1c0,0.4,0,0.8,0,1.3
		c0,0.5,0,0.9,0.1,1.4c0.2-0.4,0.3-0.8,0.5-1.3c0.2-0.5,0.4-0.9,0.6-1.2c0.2-0.4,0.5-0.7,0.7-0.9s0.5-0.3,0.8-0.1
		c0.1,0.1,0.2,0.2,0.3,0.5c0.1,0.3,0.1,0.6,0.1,0.9c0,0.4,0.1,0.7,0.1,1.2s0.1,0.8,0.2,1.1c0.1,0.3,0.3,0.6,0.5,0.8
		c0.2,0.2,0.5,0.3,0.9,0.2c0.2,0,0.4,0,0.5,0s0.2,0,0.2,0c0,0,0.1,0,0.1,0.1c0,0,0,0.1,0,0.2c-0.6,0.3-1.2,0.4-1.6,0.3
		c-0.4-0.1-0.7-0.4-1-0.7c-0.2-0.4-0.4-0.8-0.5-1.3c-0.1-0.5-0.2-1-0.2-1.6c0-0.2-0.1-0.3-0.2-0.3c-0.1,0-0.3,0.2-0.4,0.4
		c-0.2,0.2-0.3,0.5-0.5,0.8c-0.2,0.3-0.4,0.7-0.5,1.1c-0.2,0.4-0.3,0.7-0.5,1.1c-0.1,0.4-0.2,0.6-0.3,0.9c-0.1,0.2-0.2,0.2-0.4,0.1
		c-0.2-0.1-0.3-0.2-0.4-0.4c-0.1-0.3-0.1-0.6-0.1-1c0-0.4,0-0.8,0-1.2s0-0.8,0-1.2c0-0.4,0-0.7,0-1c0-0.3-0.1-0.5-0.1-0.6
		s-0.1-0.1-0.3,0.1c-0.3,0.4-0.6,1-0.8,1.5c-0.3,0.6-0.5,1.2-0.7,1.8c-0.2,0.6-0.3,1.2-0.5,1.8c-0.1,0.6-0.2,1.2-0.2,1.7
		c-0.3,0.1-0.5,0-0.6-0.1c-0.1-0.1-0.2-0.3-0.3-0.5c0-0.2,0.1-0.7,0.1-1.3c0-0.6,0.1-1.4,0.1-2.2c0-0.8,0.1-1.7,0.1-2.5
		C191.9,61.3,191.9,60.5,191.9,59.9z"/>
	<path class="st1" d="M207.4,61.5c0.1,0,0.2,0.1,0.2,0.1c0.1,0.1,0.2,0.1,0.3,0.2c0.1,0.1,0.2,0.2,0.2,0.4s0.1,0.4,0.1,0.6
		c0,0.9-0.3,1.7-0.7,2.4s-0.9,1.3-1.5,1.8c-0.6,0.5-1.2,0.9-1.8,1.1c-0.6,0.2-1.1,0.3-1.6,0.3c0,1.7,0,3.1,0,4.2c0,1.1,0,2,0.1,2.8
		c0,0.7,0,1.3,0,1.6c0,0.4,0,0.6-0.1,0.8c0,0.1-0.1,0.2-0.2,0.2c-0.1,0-0.3,0-0.4-0.1c0,0.1-0.1,0-0.1-0.1c0-0.1,0-0.3,0-0.6
		s0-0.8,0-1.4c0-0.1,0-0.3,0-0.9c0-0.5,0-1.2,0-2c0-0.8,0-1.7-0.1-2.7c0-1-0.1-1.9-0.1-2.9c0-0.9-0.1-1.8-0.1-2.6
		c0-0.8-0.1-1.4-0.2-1.8c0,0,0-0.1,0-0.3c0-0.1,0-0.3-0.1-0.5c0-0.2-0.1-0.4-0.1-0.7c0-0.2-0.1-0.5-0.1-0.7c0.3,0,0.5,0,0.6,0.1
		c0.1,0.1,0.2,0.2,0.3,0.3c0.1,0.3,0.2,0.9,0.3,1.6c0.1,0.7,0.2,1.7,0.3,3c0-0.2,0.1-0.4,0.3-0.7s0.3-0.6,0.6-1
		c0.2-0.4,0.5-0.7,0.8-1c0.3-0.3,0.6-0.6,1-0.9c0.3-0.2,0.7-0.4,1-0.5C206.7,61.4,207.1,61.4,207.4,61.5z M204.2,67.4
		c0.8-0.3,1.4-0.8,1.9-1.3s0.8-1,1-1.5c0.2-0.5,0.3-1,0.3-1.4c0-0.4-0.1-0.6-0.2-0.8c-0.3-0.2-0.7-0.3-1-0.1
		c-0.3,0.2-0.6,0.4-0.9,0.6c-0.2,0.1-0.4,0.4-0.6,0.7c-0.3,0.4-0.6,0.7-0.8,1.2c-0.3,0.4-0.5,0.9-0.7,1.3c-0.2,0.4-0.3,0.8-0.3,1.2
		c0.1,0.1,0.2,0.1,0.3,0.2c0.1,0,0.2,0,0.4,0C203.7,67.5,203.9,67.5,204.2,67.4z"/>
	<path class="st1" d="M210.3,63.3c0,0.1,0,0.3,0.1,0.7c0.1,0.4,0.1,1,0.2,1.6c0.1,0.6,0.2,1.3,0.2,2s0.2,1.4,0.3,2
		c0.1,0.6,0.2,1.2,0.2,1.7c0.1,0.5,0.1,0.8,0.1,0.9c-0.1,0-0.2,0-0.3-0.1c-0.1,0-0.1-0.1-0.2-0.1c-0.1-0.1-0.2-0.2-0.2-0.3
		c-0.1-0.1-0.2-0.3-0.4-0.6c-0.2-1.6-0.4-3-0.5-4.2c-0.1-1.2-0.2-2.1-0.3-2.9c-0.3,0.4-0.5,0.7-0.7,0.8c-0.1,0.1-0.2,0.2-0.3,0.2
		c-0.1,0-0.1-0.1,0-0.2c0-0.1,0-0.2,0.1-0.3c0-0.1,0-0.2,0.1-0.2c0-0.1,0-0.1,0.1-0.2c0.1-0.2,0.2-0.3,0.3-0.5
		c0.1-0.2,0.2-0.3,0.2-0.5c0.1-0.2,0.1-0.3,0.2-0.5c0-0.2,0-0.4,0-0.5c0-0.1,0-0.3,0-0.4s0-0.3,0-0.5s0-0.4,0-0.6c0-0.2,0-0.6,0-1
		s0-1,0-1.5c0-0.6,0-1.2,0-1.8c0-0.6,0-1.2,0.1-1.8c0-0.6,0.1-1.1,0.1-1.5c0-0.5,0.1-0.8,0.1-1c0.1-0.5,0.3-0.9,0.6-1.2
		s0.5-0.4,0.8-0.5c0.3,0,0.5,0,0.8,0.2c0.3,0.2,0.5,0.5,0.6,0.8c0.2,0.4,0.2,0.9,0.2,1.5c0,0.6-0.1,1.3-0.2,2s-0.2,1.5-0.4,2.2
		c-0.2,0.8-0.4,1.5-0.6,2.3s-0.4,1.4-0.6,2.1C210.7,62.3,210.5,62.8,210.3,63.3z M210.1,61.8c0.4-1.3,0.8-2.5,1.1-3.7
		c0.3-1.2,0.5-2.3,0.6-3.3c0.1-1,0.2-1.7,0.1-2.3c0-0.6-0.2-0.9-0.4-0.9c-0.3-0.1-0.6,0-0.8,0.3c-0.2,0.3-0.3,0.8-0.5,1.4
		s-0.2,1.3-0.2,2.1c0,0.8,0,1.6,0,2.4c0,0.8,0,1.5,0,2.3C210.1,60.8,210.1,61.4,210.1,61.8z"/>
	<path class="st1" d="M214.2,57.2c0.2,0,0.3,0.1,0.3,0.3c0,0.2,0,0.4-0.1,0.5c-0.2,0.2-0.3,0.3-0.4,0.4c-0.1,0.1-0.2,0.2-0.4,0.2
		c-0.1,0-0.2,0-0.3,0c-0.1,0-0.1-0.1-0.2-0.4c0.1-0.2,0.2-0.4,0.3-0.6C213.7,57.5,213.9,57.4,214.2,57.2z M214.3,60.6
		c0.1,0.8,0.1,1.7,0.2,2.7c0,1,0.1,2,0.2,3.1c0.1,0.6,0.1,1,0.2,1.3c0.1,0.3,0.1,0.6,0.2,0.9c-0.3,0.1-0.5,0-0.6,0
		c-0.2-0.1-0.3-0.1-0.4-0.2c0-0.3-0.1-0.7-0.1-1.4c0-0.6-0.1-1.3-0.1-2.1c0-0.8-0.1-1.5-0.1-2.2c0-0.7-0.1-1.3-0.1-1.7
		c0.1,0,0.1-0.1,0.2-0.2c0-0.1,0.1-0.1,0.1-0.2s0.1-0.1,0.2-0.1C214.1,60.6,214.2,60.6,214.3,60.6z"/>
	<path class="st1" d="M223.9,54.8c-0.2,0-0.3,0-0.4,0c-0.1,0-0.1,0-0.2,0c0,0,0,0,0,0c0,0,0,0,0-0.1c0,0-0.1-0.1-0.1-0.2
		c-0.1-0.2-0.1-0.3-0.2-0.5c-0.1-0.2-0.2-0.4-0.4-0.5c-0.2-0.2-0.4-0.2-0.6-0.2c-0.5-0.1-0.9-0.1-1.2,0.2s-0.6,0.6-0.8,1.1
		c-0.2,0.5-0.3,1-0.4,1.6s-0.2,1.2-0.2,1.9s-0.1,1.2-0.1,1.8s0,1,0,1.4c0.3,0,0.6,0,0.8,0c0.2,0,0.4,0,0.6,0c0.2,0,0.3,0,0.5,0
		c0.2,0,0.3,0,0.5,0c0.1,0,0.2,0.1,0.3,0.2c0.1,0.1,0.2,0.2,0.2,0.3c0.1,0.1,0.1,0.2,0.1,0.3c0,0.1,0,0.1,0,0.1
		c-0.3,0.1-0.6,0.1-0.8,0.1c-0.2,0-0.5,0-0.7,0.1c-0.2,0-0.5,0-0.7,0c-0.2,0-0.5,0-0.8,0c0,0.9,0.1,1.7,0.1,2.4
		c0.1,0.7,0.1,1.4,0.1,2c0,0.6,0.1,1.2,0.1,1.9s0.1,1.2,0.1,1.9c0,0.1-0.1,0.2-0.3,0.2c-0.1,0-0.3,0-0.5,0c-0.1,0-0.1,0-0.1,0
		c0,0,0-0.1,0-0.2c0-0.1,0-0.4,0-0.7c0-0.3,0-0.8-0.1-1.4c0-0.6-0.1-1.4-0.1-2.3c-0.1-0.9-0.1-2.1-0.2-3.5c-0.4,0-0.7,0.1-1,0.1
		c-0.2,0-0.5,0-0.6,0c-0.2,0-0.4,0-0.5,0c-0.2,0-0.4,0-0.6,0c-0.1,0-0.2,0-0.2-0.1s0-0.1,0.1-0.2c0-0.1,0.1-0.2,0.2-0.3
		c0.1-0.1,0.1-0.1,0.1-0.2c0.1,0,0.4-0.1,0.9-0.1c0.5-0.1,1.1-0.1,1.7-0.2c-0.1-1.7-0.1-3,0-4.2c0.1-1.1,0.3-2,0.5-2.7
		c0.2-0.7,0.5-1.2,0.7-1.5c0.3-0.3,0.5-0.6,0.8-0.7c0.6-0.2,1.1-0.3,1.6,0c0.5,0.2,0.9,0.5,1.2,0.9s0.5,0.7,0.7,1.1
		C224,54.5,224,54.7,223.9,54.8z"/>
	<path class="st1" d="M224.5,57.2c0.2,0,0.3,0.1,0.3,0.3c0,0.2,0,0.4-0.1,0.5c-0.2,0.2-0.3,0.3-0.4,0.4c-0.1,0.1-0.2,0.2-0.4,0.2
		c-0.1,0-0.2,0-0.3,0c-0.1,0-0.1-0.1-0.2-0.4c0.1-0.2,0.2-0.4,0.3-0.6C224,57.5,224.2,57.4,224.5,57.2z M224.6,60.6
		c0.1,0.8,0.1,1.7,0.2,2.7c0,1,0.1,2,0.2,3.1c0.1,0.6,0.1,1,0.2,1.3c0.1,0.3,0.1,0.6,0.2,0.9c-0.3,0.1-0.5,0-0.6,0
		c-0.2-0.1-0.3-0.1-0.4-0.2c0-0.3-0.1-0.7-0.1-1.4c0-0.6-0.1-1.3-0.1-2.1c0-0.8-0.1-1.5-0.1-2.2c0-0.7-0.1-1.3-0.1-1.7
		c0.1,0,0.1-0.1,0.2-0.2c0-0.1,0.1-0.1,0.1-0.2s0.1-0.1,0.2-0.1C224.3,60.6,224.4,60.6,224.6,60.6z"/>
	<path class="st1" d="M228.6,61.3c0.1,0,0.2-0.1,0.4-0.1c0.2-0.1,0.4-0.1,0.6,0c0.5,0,0.9,0.1,1.2,0.4c0.3,0.3,0.3,0.8,0.1,1.6
		c-0.3,0.9-0.8,1.6-1.3,2.2c-0.5,0.6-1.2,1.1-1.9,1.7c0.2,0.4,0.4,0.7,0.8,0.8c0.3,0.1,0.7,0,1.1-0.2c0.4-0.2,0.8-0.4,1.1-0.7
		c0.4-0.3,0.7-0.5,0.9-0.7c0.4-0.3,0.7-0.6,0.9-0.8s0.4-0.5,0.7-0.8c0.1,0,0.1,0,0.1,0s0,0.1,0,0.2c0,0.1,0,0.2-0.1,0.4
		c-0.1,0.1-0.1,0.2-0.2,0.3s-0.1,0.2-0.2,0.3s-0.2,0.2-0.4,0.4s-0.3,0.4-0.6,0.6c-0.3,0.2-0.5,0.5-0.8,0.7c-0.2,0.2-0.5,0.4-0.8,0.6
		c-0.3,0.2-0.6,0.3-0.9,0.4c-0.3,0.1-0.7,0.1-1.1,0c-0.3-0.1-0.6-0.3-0.8-0.4c-0.2-0.1-0.4-0.3-0.5-0.4c-0.1-0.1-0.2-0.3-0.2-0.4
		c-0.1-0.1-0.1-0.2-0.1-0.3c-0.1-0.3-0.1-0.8-0.1-1.4c0-0.6,0.2-1.3,0.5-2.3c0.2-0.5,0.5-0.9,0.7-1.2
		C227.9,61.8,228.2,61.5,228.6,61.3z M227.5,65.9c0.2-0.1,0.5-0.3,0.8-0.5c0.3-0.2,0.6-0.5,0.9-0.8c0.3-0.3,0.5-0.6,0.7-0.9
		c0.2-0.3,0.3-0.7,0.3-1.1c0.1-0.3,0-0.4,0-0.5c0-0.1-0.1-0.1-0.1-0.1c-0.3-0.1-0.6-0.1-0.9,0.1c-0.3,0.2-0.6,0.5-0.8,1
		c-0.2,0.4-0.4,0.9-0.6,1.4C227.5,65,227.5,65.4,227.5,65.9z"/>
	<path class="st1" d="M241.3,55c-0.1,0.3-0.1,0.6-0.2,1c-0.1,0.3-0.1,0.7-0.2,1c-0.1,0.3-0.1,0.6-0.2,0.8c-0.1,0.2-0.1,0.4-0.1,0.4
		c-0.1,0.3-0.2,0.7-0.4,1.1c-0.2,0.5-0.4,1-0.6,1.5c-0.2,0.5-0.5,1-0.8,1.5c-0.3,0.5-0.6,0.9-0.9,1.3c0,0.3,0,0.7,0.1,1.3
		s0.1,1.3,0.2,2c0.1,0.7,0.2,1.4,0.2,2.1c0.1,0.7,0.1,1.2,0.1,1.6c-0.1,0.1-0.2,0.1-0.2-0.1c-0.1-0.1-0.2-0.3-0.3-0.6
		c-0.1-0.4-0.2-0.9-0.2-1.2c-0.1-0.4-0.1-0.8-0.2-1.2c-0.1-0.4-0.1-0.8-0.2-1.2c-0.1-0.4-0.2-0.9-0.3-1.5c-0.3,0.4-0.7,0.9-1.2,1.4
		s-0.9,1-1.4,1.4c-0.5,0.4-1,0.7-1.4,0.9c-0.5,0.2-0.9,0.1-1.2-0.2c-0.2-0.3-0.3-0.6-0.3-1c0-0.4,0.1-0.8,0.3-1.1
		c0.2-0.4,0.4-0.8,0.7-1.2c0.3-0.4,0.6-0.7,0.9-1.1c0.3-0.3,0.6-0.6,0.8-0.9c0.3-0.2,0.4-0.4,0.6-0.5c0.2-0.2,0.4-0.3,0.6-0.4
		c0.2-0.1,0.3-0.2,0.4-0.2c0.1-0.1,0.3-0.1,0.4-0.1c0.1,0,0.3,0,0.5,0c0-0.4-0.1-0.9-0.1-1.4c0-0.6,0-1.1,0-1.7c0-0.6,0-1.1,0.1-1.6
		c0-0.5,0.1-0.9,0.1-1.1c0-0.4,0.1-0.8,0.2-1.2c0.1-0.4,0.3-0.8,0.5-1.2c0.2-0.4,0.4-0.7,0.7-1c0.2-0.3,0.5-0.5,0.8-0.6
		c0.3-0.1,0.6-0.2,0.9-0.1c0.3,0.1,0.6,0.3,0.9,0.6c0.2,0.3,0.4,0.7,0.4,1.1C241.3,54.1,241.3,54.5,241.3,55z M234.1,64.3
		c-0.5,0.5-0.8,0.9-1,1.3s-0.4,0.8-0.5,1.1c0,0.1,0,0.1,0,0.2c0,0.1,0,0.2,0,0.3c0,0.1,0.1,0.2,0.2,0.3c0.1,0.1,0.2,0.1,0.4,0.1
		c0.2-0.1,0.3-0.1,0.4-0.2c0.1-0.1,0.2-0.1,0.3-0.2c0.1-0.1,0.2-0.2,0.3-0.2c0.1-0.1,0.3-0.2,0.4-0.3c0.2-0.3,0.5-0.6,0.9-0.9
		c0.4-0.3,0.7-0.7,0.9-1c0.3-0.4,0.4-0.7,0.5-1.1c0.1-0.4,0-0.8-0.3-1.1c-0.1,0-0.2,0-0.4,0.1c-0.1,0-0.3,0.1-0.5,0.2
		c-0.2,0.1-0.4,0.3-0.7,0.5C234.8,63.6,234.5,63.9,234.1,64.3z M237.9,61.9c0.3-0.3,0.6-0.7,0.8-1.1c0.2-0.4,0.4-0.8,0.7-1.4
		c0.2-0.5,0.4-1.1,0.6-1.8c0.2-0.7,0.3-1.4,0.4-2.1c0.1-0.7,0.1-1.3,0-1.8c-0.1-0.5-0.2-0.8-0.5-0.8c-0.2,0-0.5,0.1-0.7,0.3
		s-0.4,0.5-0.6,0.8c-0.2,0.3-0.3,0.7-0.4,1c-0.1,0.4-0.2,0.7-0.3,1c-0.1,0.3-0.1,0.7-0.1,0.9c0,0.3,0,0.6-0.1,0.9c0,0.3,0,0.6,0,1
		c0,0.4-0.1,0.8-0.1,1.3c0,0.3,0,0.5,0,0.8c0,0.3,0.1,0.5,0.1,0.7C237.7,61.6,237.7,61.8,237.9,61.9C237.8,62,237.8,62,237.9,61.9z"
		/>
</g>
</svg>
